name Visual3d_SIMM_grf.mot
datacolumns 19
datarows 50
range 1.230000 1.720000
endheader
time	ground_force_vx	ground_force_vy	ground_force_vz	ground_force_px	ground_force_py	ground_force_pz	l_ground_force_vx	l_ground_force_vy	l_ground_force_vz	l_ground_force_px	l_ground_force_py	l_ground_force_pz	ground_torque_x	ground_torque_y	ground_torque_z	l_ground_torque_x	l_ground_torque_y	l_ground_torque_z
1.230000	41.445724	114.661140	-2.182494	-0.202481	-0.000294	-0.205353	-41.481590	188.218185	9.653407	0.260048	-0.005662	-0.272783	-0.001179	1.059401	-0.002272	0.000968	-0.085125	-0.001730
1.240000	33.668602	87.902550	-0.868129	-0.200876	-0.000770	-0.205518	-48.927929	216.151520	13.595303	0.263529	-0.006118	-0.274986	-0.000796	0.715000	-0.001533	0.000407	-0.035836	-0.000728
1.250000	25.376730	63.393066	0.145338	-0.199817	-0.000813	-0.206227	-55.058758	241.803513	17.691700	0.267215	-0.006420	-0.277307	-0.000426	0.383075	-0.000821	-0.000492	0.043259	0.000879
1.260000	17.381834	42.473789	0.802725	-0.198835	-0.000531	-0.207412	-59.550816	264.803497	21.643635	0.270887	-0.006510	-0.279563	-0.000100	0.089394	-0.000192	-0.001735	0.152592	0.003102
1.270000	10.466139	25.928436	1.122549	-0.197434	-0.000028	-0.208882	-62.092926	284.600555	25.164377	0.274303	-0.006396	-0.281571	0.000166	-0.148809	0.000319	-0.003313	0.291374	0.005923
1.280000	0.000000	0.000000	0.000000	0.000000	0.000000	0.000000	-62.598526	300.466064	28.012716	0.277293	-0.006128	-0.283201	0.000000	0.000000	0.000000	-0.005128	0.450946	0.009166
1.290000	0.000000	0.000000	0.000000	0.000000	0.000000	0.000000	-61.197456	311.795929	30.058350	0.279757	-0.005775	-0.284397	0.000000	0.000000	0.000000	-0.006968	0.612797	0.012456
1.300000	0.000000	0.000000	0.000000	0.000000	0.000000	0.000000	-58.220421	318.182983	31.245537	0.281696	-0.005395	-0.285164	0.000000	0.000000	0.000000	-0.008618	0.757846	0.015405
1.310000	0.000000	0.000000	0.000000	0.000000	0.000000	0.000000	-54.110321	319.447845	31.579762	0.283205	-0.005028	-0.285550	0.000000	0.000000	0.000000	-0.009938	0.874008	0.017766
1.320000	0.000000	0.000000	0.000000	0.000000	0.000000	0.000000	-49.307899	315.776154	31.165602	0.284445	-0.004696	-0.285638	0.000000	0.000000	0.000000	-0.010884	0.957198	0.019457
1.330000	0.000000	0.000000	0.000000	0.000000	0.000000	0.000000	-44.201199	307.736420	30.203829	0.285609	-0.004410	-0.285541	0.000000	0.000000	0.000000	-0.011465	1.008289	0.020495
1.340000	0.000000	0.000000	0.000000	0.000000	0.000000	0.000000	-39.110245	296.197968	28.930111	0.286894	-0.004167	-0.285367	0.000000	0.000000	0.000000	-0.011738	1.032283	0.020983
1.350000	0.000000	0.000000	0.000000	0.000000	0.000000	0.000000	-34.287071	282.229584	27.552042	0.288486	-0.003963	-0.285203	0.000000	0.000000	0.000000	-0.011777	1.035721	0.021053
1.360000	0.000000	0.000000	0.000000	0.000000	0.000000	0.000000	-29.899950	266.974121	26.207150	0.290526	-0.003792	-0.285100	0.000000	0.000000	0.000000	-0.011648	1.024311	0.020821
1.370000	0.000000	0.000000	0.000000	0.000000	0.000000	0.000000	-26.020895	251.537506	24.952240	0.293092	-0.003652	-0.285061	0.000000	0.000000	0.000000	-0.011401	1.002627	0.020380
1.380000	0.000000	0.000000	0.000000	0.000000	0.000000	0.000000	-22.634014	236.899368	23.778866	0.296170	-0.003539	-0.285065	0.000000	0.000000	0.000000	-0.011074	0.973891	0.019796
1.390000	0.000000	0.000000	0.000000	0.000000	0.000000	0.000000	-19.664261	223.836731	22.646048	0.299655	-0.003450	-0.285071	0.000000	0.000000	0.000000	-0.010682	0.939372	0.019094
1.400000	0.000000	0.000000	0.000000	0.000000	0.000000	0.000000	-17.010929	212.846420	21.509954	0.303377	-0.003377	-0.285050	0.000000	0.000000	0.000000	-0.010208	0.897720	0.018248
1.410000	0.000000	0.000000	0.000000	0.000000	0.000000	0.000000	-14.578662	204.113281	20.355217	0.307153	-0.003312	-0.284990	0.000000	0.000000	0.000000	-0.009626	0.846556	0.017208
1.420000	0.000000	0.000000	0.000000	0.000000	0.000000	0.000000	-12.297767	197.555801	19.216200	0.310829	-0.003251	-0.284886	0.000000	0.000000	0.000000	-0.008932	0.785523	0.015967
1.430000	0.000000	0.000000	0.000000	0.000000	0.000000	0.000000	-10.136737	192.914322	18.162905	0.314337	-0.003190	-0.284752	0.000000	0.000000	0.000000	-0.008160	0.717625	0.014587
1.440000	0.000000	0.000000	0.000000	0.000000	0.000000	0.000000	-8.098590	189.861298	17.278374	0.317711	-0.003127	-0.284618	0.000000	0.000000	0.000000	-0.007374	0.648510	0.013182
1.450000	0.000000	0.000000	0.000000	0.000000	0.000000	0.000000	-6.200684	188.103149	16.622356	0.321049	-0.003061	-0.284506	0.000000	0.000000	0.000000	-0.006653	0.585083	0.011893
1.460000	0.000000	0.000000	0.000000	0.000000	0.000000	0.000000	-4.452375	187.454819	16.206896	0.324459	-0.002995	-0.284408	0.000000	0.000000	0.000000	-0.006065	0.533374	0.010842
1.470000	0.000000	0.000000	0.000000	0.000000	0.000000	0.000000	-2.842558	187.837234	15.996947	0.328019	-0.002934	-0.284285	0.000000	0.000000	0.000000	-0.005642	0.496213	0.010086
1.480000	0.000000	0.000000	0.000000	0.000000	0.000000	0.000000	-1.336061	189.231583	15.933768	0.331741	-0.002886	-0.284096	0.000000	0.000000	0.000000	-0.005370	0.472249	0.009599
1.490000	0.000000	0.000000	0.000000	0.000000	0.000000	0.000000	0.114008	191.638153	15.964222	0.335588	-0.002857	-0.283830	0.000000	0.000000	0.000000	-0.005186	0.456072	0.009270
1.500000	0.000000	0.000000	0.000000	0.000000	0.000000	0.000000	1.549594	195.030151	16.075542	0.339495	-0.002849	-0.283509	0.000000	0.000000	0.000000	-0.005012	0.440769	0.008959
1.510000	0.000000	0.000000	0.000000	0.000000	0.000000	0.000000	3.004818	199.324219	16.302233	0.343388	-0.002863	-0.283179	0.000000	0.000000	0.000000	-0.004802	0.422280	0.008584
1.520000	0.000000	0.000000	0.000000	0.000000	0.000000	0.000000	4.509110	204.372864	16.711260	0.347208	-0.002894	-0.282878	0.000000	0.000000	0.000000	-0.004567	0.401613	0.008163
1.530000	0.000000	0.000000	0.000000	0.000000	0.000000	0.000000	6.093632	209.997025	17.360388	0.350906	-0.002929	-0.282611	0.000000	0.000000	0.000000	-0.004349	0.382449	0.007774
1.540000	0.000000	0.000000	0.000000	0.000000	0.000000	0.000000	7.792821	216.029083	18.268265	0.354447	-0.002958	-0.282362	0.000000	0.000000	0.000000	-0.004187	0.368206	0.007484
1.550000	0.000000	0.000000	0.000000	0.000000	0.000000	0.000000	9.642962	222.356186	19.403925	0.357808	-0.002979	-0.282106	0.000000	0.000000	0.000000	-0.004097	0.360326	0.007324
1.560000	0.000000	0.000000	0.000000	0.000000	0.000000	0.000000	11.676432	228.947281	20.688780	0.360970	-0.002999	-0.281818	0.000000	0.000000	0.000000	-0.004068	0.357746	0.007272
1.570000	0.000000	0.000000	0.000000	0.000000	0.000000	0.000000	13.919803	235.821671	22.025127	0.363923	-0.003031	-0.281471	0.000000	0.000000	0.000000	-0.004077	0.358573	0.007289
1.580000	0.000000	0.000000	0.000000	0.000000	0.000000	0.000000	16.403402	243.011093	23.325808	0.366646	-0.003088	-0.281055	0.000000	0.000000	0.000000	-0.004117	0.362083	0.007360
1.590000	0.000000	0.000000	0.000000	0.000000	0.000000	0.000000	19.165688	250.517075	24.532322	0.369117	-0.003177	-0.280578	0.000000	0.000000	0.000000	-0.004196	0.368966	0.007500
1.600000	0.000000	0.000000	0.000000	0.000000	0.000000	0.000000	22.249344	258.255341	25.616842	0.371312	-0.003299	-0.280065	0.000000	0.000000	0.000000	-0.004345	0.382083	0.007767
1.610000	0.000000	0.000000	0.000000	0.000000	0.000000	0.000000	25.690813	266.024048	26.590771	0.373221	-0.003442	-0.279542	0.000000	0.000000	0.000000	-0.004615	0.405859	0.008250
1.620000	0.000000	0.000000	0.000000	0.000000	0.000000	0.000000	29.501228	273.461761	27.508236	0.374860	-0.003592	-0.279038	0.000000	0.000000	0.000000	-0.005075	0.446281	0.009071
1.630000	0.000000	0.000000	0.000000	0.000000	0.000000	0.000000	33.641041	280.026154	28.428160	0.376282	-0.003733	-0.278566	0.000000	0.000000	0.000000	-0.005797	0.509844	0.010363
1.640000	0.000000	0.000000	0.000000	0.000000	0.000000	0.000000	38.006805	285.017670	29.367035	0.377558	-0.003848	-0.278119	0.000000	0.000000	0.000000	-0.006815	0.599288	0.012182
1.650000	0.000000	0.000000	0.000000	0.000000	0.000000	0.000000	42.434887	287.666046	30.263386	0.378761	-0.003924	-0.277665	0.000000	0.000000	0.000000	-0.008085	0.711034	0.014453
1.660000	0.000000	0.000000	0.000000	0.000000	0.000000	0.000000	46.713421	287.225830	30.973232	0.379956	-0.003948	-0.277156	0.000000	0.000000	0.000000	-0.009491	0.834644	0.016966
1.670000	0.000000	0.000000	0.000000	0.000000	0.000000	0.000000	50.595814	283.062286	31.295513	0.381169	-0.003909	-0.276527	0.000000	0.000000	0.000000	-0.010855	0.954617	0.019404
1.680000	0.000000	0.000000	0.000000	0.000000	0.000000	0.000000	53.811329	274.699615	31.022562	0.382364	-0.003792	-0.275716	0.000000	0.000000	0.000000	-0.011975	1.053142	0.021407
1.690000	0.000000	0.000000	0.000000	0.000000	0.000000	0.000000	56.075676	261.859100	29.984806	0.383448	-0.003587	-0.274666	0.000000	0.000000	0.000000	-0.012668	1.114087	0.022646
1.700000	0.000000	0.000000	0.000000	0.000000	0.000000	0.000000	57.105259	244.496201	28.085382	0.384269	-0.003289	-0.273323	0.000000	0.000000	0.000000	-0.012810	1.126577	0.022900
1.710000	0.000000	0.000000	0.000000	0.000000	0.000000	0.000000	56.636230	222.833527	25.321543	0.384611	-0.002904	-0.271625	0.000000	0.000000	0.000000	-0.012340	1.085213	0.022059
1.720000	0.000000	0.000000	0.000000	0.000000	0.000000	0.000000	54.462105	197.390640	21.801374	0.384207	-0.002454	-0.269514	0.000000	0.000000	0.000000	-0.011272	0.991254	0.020149
